<svg xmlns="http://www.w3.org/2000/svg" width="235" height="40" viewBox="0 0 62.18 10.58" id="svg8">
    <path id="path821" style="line-height:1.25;-inkscape-font-specification:Nilland-Black" d="M8.84 292.55q0-1.91-1.25-3.18-1.26-1.27-3.17-1.27-1.92 0-3.17 1.27T0 292.55q0 1.9 1.25 3.18Q2.5 297 4.42 297q1.91 0 3.17-1.27 1.25-1.27 1.25-3.18zm-1.42 0q0 1.37-.85 2.26-.84.87-2.15.87-1.3 0-2.15-.88-.85-.88-.85-2.25 0-1.38.85-2.25.85-.89 2.15-.89 1.31 0 2.15.88.85.9.85 2.26z"/>
    <path id="path823" style="line-height:1.25;-inkscape-font-specification:Nilland-Black" d="M19.54 296.88v-1.27h-1v-6.12h1v-1.27h-2.7l-2.5 6.03-2.53-6.03H9.13v1.27h1.04v7.4h2.27v-1.28h-.96v-4.79l2.49 6.06h.63l2.52-6.05V296.9z"/>
    <path id="path825" style="line-height:1.25;-inkscape-font-specification:Nilland-Black" d="M29.59 289.5v-1.28h-2.36v6.15q-.81-1.26-1.63-2.45l-1.17-1.75q-.59-.9-1.25-1.95H20.7v1.27h1.08v7.4h2.44v-1.28H23.1v-5.04l4.25 6.42h1.2v-7.5z"/>
    <path id="path827" style="line-height:1.25;-inkscape-font-specification:Nilland-Black" d="M32.24 287.9v-1.48h-1.42v1.49zm1.03 8.98v-1.27h-1.02V288.22h-1.42v7.4h-1v1.26z"/>
    <path id="path829" style="line-height:1.25;-inkscape-font-specification:Nilland" d="M40.08 290.16v-1.56H33.7v2.5h.55v-1.98h2.31V296h-1.1v.52h1.76v-7.39h2.32v1.04z"/>
    <path id="path831" style="line-height:1.25;-inkscape-font-specification:Nilland" d="M46.87 296.51v-.52h-4.74v-3.27h3.33v-.52h-3.33v-3.08h4.2v1.4h.53v-1.92h-6.42v.52h1.03V296.51z"/>
    <path id="path833" style="line-height:1.25;-inkscape-font-specification:Nilland" d="M54.8 293.93l-.55-.31q-.47 1.28-1.29 1.88-.8.56-1.91.56-1.48 0-2.41-1-.95-1-.95-2.51 0-1.54.94-2.53.92-.98 2.37-.98 1.02 0 1.9.56.84.53 1.04 1.53h.56v-1.83h-.55v.59q-.59-.76-1.37-1.08-.81-.34-1.56-.34-1.76 0-2.88 1.14-1.11 1.13-1.11 2.94 0 1.83 1.11 2.96 1.1 1.12 2.9 1.12 1.25 0 2.23-.63.97-.63 1.52-2.07z"/>
    <path id="path835" style="line-height:1.25;-inkscape-font-specification:Nilland" d="M62.18 289.12v-.52H59.5v.52h1.04v3h-4.39v-3.52h-1.64v.52h.98V296h-.97v.52h1.63v-3.88h4.39v3.36h-1.03v.52h1.69V289.12z"/>
</svg>
